<svg width="157.18994140625px" height="60.8px" xmlns="http://www.w3.org/2000/svg" viewBox="171.405029296875 44.6 157.18994140625 60.8" style="background: rgba(0, 0, 0, 0);" preserveAspectRatio="xMidYMid"><defs><linearGradient id="editing-gradient-gradient" x1="0" x2="1" y1="0.5" y2="0.5" gradientUnits="objectBoundingBox"><stop offset="0" stop-color="#f0f"></stop><stop offset="1" stop-color="#0ff"></stop></linearGradient></defs><g><g transform="translate(199.8299999833107, 84.61999988555908)"><path d="M10.58-15.08L10.58-15.08L10.58-15.08Q10.95-15.70 10.95-16.38L10.95-16.38L10.95-16.38Q10.95-17.58 10.22-17.58L10.22-17.58L10.22-17.58Q9.10-17.58 8.63-15.29L8.63-15.29L8.24-13.26L10.61-13.26L10.45-12.09L8.01-12.09L5.67 0L0.42 0.52L2.91-12.09L1.07-12.09L1.30-13.26L3.12-13.26L3.67-15.31L3.67-15.31Q4.13-17.21 6.14-18.10L6.14-18.10L6.14-18.10Q7.59-18.72 10.04-18.72L10.04-18.72L10.04-18.72Q12.48-18.72 13.57-18.10L13.57-18.10L13.57-18.10Q14.66-17.47 14.66-16.64L14.66-16.64L14.66-16.64Q14.66-15.81 14.01-15.29L14.01-15.29L14.01-15.29Q13.36-14.77 12.64-14.77L12.64-14.77L12.64-14.77Q11.21-14.77 10.58-15.08ZM15.83 0.52L15.83 0.52L15.83 0.52Q10.11 0.52 10.11-4.86L10.11-4.86L10.11-4.86Q10.11-8.68 12.22-11.15L12.22-11.15L12.22-11.15Q14.46-13.78 18.33-13.78L18.33-13.78L18.33-13.78Q21.14-13.78 22.57-12.48L22.57-12.48L22.57-12.48Q24.00-11.18 24.00-8.45L24.00-8.45L24.00-8.45Q24.00-4.29 21.76-1.87L21.76-1.87L21.76-1.87Q19.58 0.52 15.83 0.52ZM16.51-10.79L16.51-10.79L16.51-10.79Q16.20-10.09 15.95-9.04L15.95-9.04L15.95-9.04Q15.70-7.98 15.39-6.32L15.39-6.32L15.39-6.32Q15.08-4.65 15.08-2.60L15.08-2.60L15.08-2.60Q15.08-1.92 15.30-1.48L15.30-1.48L15.30-1.48Q15.52-1.04 16.12-1.04L16.12-1.04L16.12-1.04Q16.72-1.04 17.09-1.33L17.09-1.33L17.09-1.33Q17.47-1.61 17.76-2.29L17.76-2.29L17.76-2.29Q18.28-3.48 18.69-5.71L18.69-5.71L18.69-5.71Q19.11-7.93 19.15-8.89L19.15-8.89L19.15-8.89Q19.19-9.85 19.19-10.57L19.19-10.57L19.19-10.57Q19.19-11.28 18.98-11.75L18.98-11.75L18.98-11.75Q18.77-12.22 18.19-12.22L18.19-12.22L18.19-12.22Q17.60-12.22 17.21-11.86L17.21-11.86L17.21-11.86Q16.82-11.49 16.51-10.79ZM33.67-7.31L33.67-7.31L33.67-7.31Q34.61-8.97 34.61-10.66L34.61-10.66L34.61-10.66Q34.61-11.78 33.80-11.78L33.80-11.78L33.80-11.78Q33.18-11.78 32.53-10.71L32.53-10.71L32.53-10.71Q31.85-9.65 31.64-8.27L31.64-8.27L30.29 0L24.91 0.52L27.56-13.26L31.85-13.78L31.38-11.15L31.38-11.15Q32.66-13.78 35.52-13.78L35.52-13.78L35.52-13.78Q37.02-13.78 37.84-13.00L37.84-13.00L37.84-13.00Q38.66-12.22 38.66-10.62L38.66-10.62L38.66-10.62Q38.66-9.02 37.61-8.01L37.61-8.01L37.61-8.01Q36.56-6.99 34.76-6.99L34.76-6.99L34.76-6.99Q33.98-6.99 33.67-7.31ZM48.52-12.82L48.52-12.82L48.52-12.82Q49.37-13.78 50.86-13.78L50.86-13.78L50.86-13.78Q51.77-13.78 52.47-13.29L52.47-13.29L52.47-13.29Q53.17-12.79 53.17-11.87L53.17-11.87L53.17-11.87Q53.17-10.95 52.88-9.96L52.88-9.96L52.88-9.96Q52.60-8.97 52.16-7.96L52.16-7.96L52.16-7.96Q51.27-5.98 50.05-4.34L50.05-4.34L50.05-4.34Q48.33-1.98 46.68-0.73L46.68-0.73L46.68-0.73Q45.03 0.52 43.24 0.52L43.24 0.52L43.24 0.52Q41.78 0.52 40.90 0.18L40.90 0.18L40.90 0.18Q40.74-5.28 40.55-7.23L40.55-7.23L40.55-7.23Q40.35-9.18 40.20-10.24L40.20-10.24L40.20-10.24Q39.94-12.32 39.16-12.82L39.16-12.82L39.16-12.82Q39.75-13.34 40.34-13.56L40.34-13.56L40.34-13.56Q40.92-13.78 42.13-13.78L42.13-13.78L42.13-13.78Q43.34-13.78 44.20-12.83L44.20-12.83L44.20-12.83Q45.06-11.88 45.23-10.21L45.23-10.21L45.23-10.21Q45.40-8.53 45.40-6.50L45.40-6.50L45.40-6.50Q45.40-4.47 45.24-2.03L45.24-2.03L45.24-2.03Q46.05-2.60 46.90-4.34L46.90-4.34L46.90-4.34Q48.07-6.76 48.49-9.67L48.49-9.67L48.49-9.67Q48.62-10.56 48.62-11.49L48.62-11.49L48.62-11.49Q48.62-12.43 48.52-12.82ZM55.00-0.78L55.00-0.78L55.00-0.78Q54.39-1.46 54.12-2.52L54.12-2.52L54.12-2.52Q53.85-3.59 53.85-5.33L53.85-5.33L53.85-5.33Q53.85-7.07 54.44-8.66L54.44-8.66L54.44-8.66Q55.04-10.24 56.13-11.39L56.13-11.39L56.13-11.39Q58.37-13.78 62.06-13.78L62.06-13.78L62.06-13.78Q63.39-13.78 64.35-13.34L64.35-13.34L68.80-13.78L66.87-3.64L66.87-3.64Q66.79-3.33 66.79-2.76L66.79-2.76L66.79-2.76Q66.79-2.18 67.15-1.82L67.15-1.82L67.15-1.82Q67.50-1.46 68.02-1.40L68.02-1.40L68.02-1.40Q67.76-0.52 66.81 0L66.81 0L66.81 0Q65.86 0.52 64.79 0.52L64.79 0.52L64.79 0.52Q63.73 0.52 63.01 0.12L63.01 0.12L63.01 0.12Q62.30-0.29 62.09-0.96L62.09-0.96L62.09-0.96Q61.67-0.31 60.79 0.10L60.79 0.10L60.79 0.10Q59.90 0.52 58.72 0.52L58.72 0.52L58.72 0.52Q57.54 0.52 56.58 0.21L56.58 0.21L56.58 0.21Q55.61-0.10 55.00-0.78ZM60.49-11.34L60.49-11.34L60.49-11.34Q60.19-10.87 59.93-10.08L59.93-10.08L59.93-10.08Q59.67-9.28 59.24-7.16L59.24-7.16L59.24-7.16Q58.81-5.04 58.81-3.54L58.81-3.54L58.81-3.54Q58.81-2.03 59.05-1.59L59.05-1.59L59.05-1.59Q59.28-1.14 59.70-1.14L59.70-1.14L59.70-1.14Q60.53-1.14 61.14-1.94L61.14-1.94L61.14-1.94Q61.75-2.73 61.98-4.13L61.98-4.13L63.36-11.75L63.36-11.75Q62.82-12.22 62.18-12.22L62.18-12.22L62.18-12.22Q61.54-12.22 61.17-12.01L61.17-12.01L61.17-12.01Q60.79-11.80 60.49-11.34ZM79.64-12.82L79.64-12.82L79.64-12.82Q80.50-13.78 81.98-13.78L81.98-13.78L81.98-13.78Q82.89-13.78 83.59-13.29L83.59-13.29L83.59-13.29Q84.29-12.79 84.29-11.87L84.29-11.87L84.29-11.87Q84.29-10.95 84.01-9.96L84.01-9.96L84.01-9.96Q83.72-8.97 83.28-7.96L83.28-7.96L83.28-7.96Q82.39-5.98 81.17-4.34L81.17-4.34L81.17-4.34Q79.46-1.98 77.81-0.73L77.81-0.73L77.81-0.73Q76.15 0.52 74.36 0.52L74.36 0.52L74.36 0.52Q72.90 0.52 72.02 0.18L72.02 0.18L72.02 0.18Q71.86-5.28 71.67-7.23L71.67-7.23L71.67-7.23Q71.47-9.18 71.32-10.24L71.32-10.24L71.32-10.24Q71.06-12.32 70.28-12.82L70.28-12.82L70.28-12.82Q70.88-13.34 71.46-13.56L71.46-13.56L71.46-13.56Q72.05-13.78 73.26-13.78L73.26-13.78L73.26-13.78Q74.46-13.78 75.32-12.83L75.32-12.83L75.32-12.83Q76.18-11.88 76.35-10.21L76.35-10.21L76.35-10.21Q76.52-8.53 76.52-6.50L76.52-6.50L76.52-6.50Q76.52-4.47 76.36-2.03L76.36-2.03L76.36-2.03Q77.17-2.60 78.03-4.34L78.03-4.34L78.03-4.34Q79.20-6.76 79.61-9.67L79.61-9.67L79.61-9.67Q79.74-10.56 79.74-11.49L79.74-11.49L79.74-11.49Q79.74-12.43 79.64-12.82ZM86.13-0.78L86.13-0.78L86.13-0.78Q85.51-1.46 85.24-2.52L85.24-2.52L85.24-2.52Q84.97-3.59 84.97-5.33L84.97-5.33L84.97-5.33Q84.97-7.07 85.57-8.66L85.57-8.66L85.57-8.66Q86.16-10.24 87.26-11.39L87.26-11.39L87.26-11.39Q89.49-13.78 93.18-13.78L93.18-13.78L93.18-13.78Q94.51-13.78 95.47-13.34L95.47-13.34L99.92-13.78L97.99-3.64L97.99-3.64Q97.92-3.33 97.92-2.76L97.92-2.76L97.92-2.76Q97.92-2.18 98.27-1.82L98.27-1.82L98.27-1.82Q98.62-1.46 99.14-1.40L99.14-1.40L99.14-1.40Q98.88-0.52 97.93 0L97.93 0L97.93 0Q96.98 0.52 95.91 0.52L95.91 0.52L95.91 0.52Q94.85 0.52 94.13 0.12L94.13 0.12L94.13 0.12Q93.42-0.29 93.21-0.96L93.21-0.96L93.21-0.96Q92.79-0.31 91.91 0.10L91.91 0.10L91.91 0.10Q91.03 0.52 89.84 0.52L89.84 0.52L89.84 0.52Q88.66 0.52 87.70 0.21L87.70 0.21L87.70 0.21Q86.74-0.10 86.13-0.78ZM91.61-11.34L91.61-11.34L91.61-11.34Q91.31-10.87 91.05-10.08L91.05-10.08L91.05-10.08Q90.79-9.28 90.36-7.16L90.36-7.16L90.36-7.16Q89.93-5.04 89.93-3.54L89.93-3.54L89.93-3.54Q89.93-2.03 90.17-1.59L90.17-1.59L90.17-1.59Q90.40-1.14 90.82-1.14L90.82-1.14L90.82-1.14Q91.65-1.14 92.26-1.94L92.26-1.94L92.26-1.94Q92.87-2.73 93.11-4.13L93.11-4.13L94.48-11.75L94.48-11.75Q93.94-12.22 93.30-12.22L93.30-12.22L93.30-12.22Q92.66-12.22 92.29-12.01L92.29-12.01L92.29-12.01Q91.91-11.80 91.61-11.34Z" fill="url(#editing-gradient-gradient)"></path></g></g><style>text {
  font-size: 64px;
  font-family: Arial Black;
  dominant-baseline: central;
  text-anchor: middle;
}</style></svg>