<svg width="120.257568359375px" height="50.00498046875px" xmlns="http://www.w3.org/2000/svg" viewBox="189.8712158203125 49.997509765625 120.257568359375 50.00498046875" style="background: rgba(0, 0, 0, 0);" preserveAspectRatio="xMidYMid"><defs><linearGradient id="editing-gradient-gradient" x1="0" x2="1" y1="0.5" y2="0.5" gradientUnits="objectBoundingBox"><stop offset="0" stop-color="#f0f"></stop><stop offset="1" stop-color="#0ff"></stop></linearGradient></defs><g><g transform="translate(213.34000319242477, 82.03000020980835)"><path d="M7.73-11.02L7.73-11.02L7.73-11.02Q8.00-11.48 8.00-11.97L8.00-11.97L8.00-11.97Q8.00-12.84 7.47-12.84L7.47-12.84L7.47-12.84Q6.65-12.84 6.31-11.17L6.31-11.17L6.02-9.69L7.75-9.69L7.64-8.83L5.85-8.83L4.14 0L0.30 0.38L2.13-8.83L0.78-8.83L0.95-9.69L2.28-9.69L2.68-11.19L2.68-11.19Q3.02-12.58 4.48-13.22L4.48-13.22L4.48-13.22Q5.55-13.68 7.33-13.68L7.33-13.68L7.33-13.68Q9.12-13.68 9.92-13.22L9.92-13.22L9.92-13.22Q10.72-12.77 10.72-12.16L10.72-12.16L10.72-12.16Q10.72-11.55 10.24-11.17L10.24-11.17L10.24-11.17Q9.77-10.79 9.23-10.79L9.23-10.79L9.23-10.79Q8.19-10.79 7.73-11.02ZM11.57 0.38L11.57 0.38L11.57 0.38Q7.39 0.38 7.39-3.55L7.39-3.55L7.39-3.55Q7.39-6.35 8.93-8.15L8.93-8.15L8.93-8.15Q10.56-10.07 13.39-10.07L13.39-10.07L13.39-10.07Q15.45-10.07 16.49-9.12L16.49-9.12L16.49-9.12Q17.54-8.17 17.54-6.17L17.54-6.17L17.54-6.17Q17.54-3.13 15.90-1.37L15.90-1.37L15.90-1.37Q14.31 0.38 11.57 0.38ZM12.06-7.88L12.06-7.88L12.06-7.88Q11.84-7.37 11.66-6.60L11.66-6.60L11.66-6.60Q11.48-5.83 11.25-4.62L11.25-4.62L11.25-4.62Q11.02-3.40 11.02-1.90L11.02-1.90L11.02-1.90Q11.02-1.41 11.18-1.08L11.18-1.08L11.18-1.08Q11.34-0.76 11.78-0.76L11.78-0.76L11.78-0.76Q12.22-0.76 12.49-0.97L12.49-0.97L12.49-0.97Q12.77-1.18 12.98-1.67L12.98-1.67L12.98-1.67Q13.36-2.55 13.66-4.17L13.66-4.17L13.66-4.17Q13.96-5.79 13.99-6.50L13.99-6.50L13.99-6.50Q14.02-7.20 14.02-7.72L14.02-7.72L14.02-7.72Q14.02-8.25 13.87-8.59L13.87-8.59L13.87-8.59Q13.72-8.93 13.29-8.93L13.29-8.93L13.29-8.93Q12.86-8.93 12.58-8.66L12.58-8.66L12.58-8.66Q12.29-8.40 12.06-7.88ZM24.61-5.34L24.61-5.34L24.61-5.34Q25.29-6.55 25.29-7.79L25.29-7.79L25.29-7.79Q25.29-8.61 24.70-8.61L24.70-8.61L24.70-8.61Q24.24-8.61 23.77-7.83L23.77-7.83L23.77-7.83Q23.27-7.05 23.12-6.04L23.12-6.04L22.14 0L18.20 0.38L20.14-9.69L23.27-10.07L22.93-8.15L22.93-8.15Q23.86-10.07 25.95-10.07L25.95-10.07L25.95-10.07Q27.06-10.07 27.65-9.50L27.65-9.50L27.65-9.50Q28.25-8.93 28.25-7.76L28.25-7.76L28.25-7.76Q28.25-6.59 27.48-5.85L27.48-5.85L27.48-5.85Q26.71-5.11 25.40-5.11L25.40-5.11L25.40-5.11Q24.83-5.11 24.61-5.34ZM35.45-9.37L35.45-9.37L35.45-9.37Q36.08-10.07 37.16-10.07L37.16-10.07L37.16-10.07Q37.83-10.07 38.34-9.71L38.34-9.71L38.34-9.71Q38.86-9.35 38.86-8.67L38.86-8.67L38.86-8.67Q38.86-8.00 38.65-7.28L38.65-7.28L38.65-7.28Q38.44-6.55 38.11-5.81L38.11-5.81L38.11-5.81Q37.47-4.37 36.58-3.17L36.58-3.17L36.58-3.17Q35.32-1.44 34.11-0.53L34.11-0.53L34.11-0.53Q32.91 0.38 31.60 0.38L31.60 0.38L31.60 0.38Q30.53 0.38 29.89 0.13L29.89 0.13L29.89 0.13Q29.77-3.86 29.63-5.28L29.63-5.28L29.63-5.28Q29.49-6.71 29.37-7.49L29.37-7.49L29.37-7.49Q29.18-9.01 28.61-9.37L28.61-9.37L28.61-9.37Q29.05-9.75 29.48-9.91L29.48-9.91L29.48-9.91Q29.91-10.07 30.79-10.07L30.79-10.07L30.79-10.07Q31.67-10.07 32.30-9.38L32.30-9.38L32.30-9.38Q32.93-8.68 33.05-7.46L33.05-7.46L33.05-7.46Q33.17-6.23 33.17-4.75L33.17-4.75L33.17-4.75Q33.17-3.27 33.06-1.48L33.06-1.48L33.06-1.48Q33.65-1.90 34.28-3.17L34.28-3.17L34.28-3.17Q35.13-4.94 35.44-7.07L35.44-7.07L35.44-7.07Q35.53-7.71 35.53-8.40L35.53-8.40L35.53-8.40Q35.53-9.08 35.45-9.37ZM40.19-0.57L40.19-0.57L40.19-0.57Q39.75-1.06 39.55-1.84L39.55-1.84L39.55-1.84Q39.35-2.62 39.35-3.90L39.35-3.90L39.35-3.90Q39.35-5.17 39.79-6.33L39.79-6.33L39.79-6.33Q40.22-7.49 41.02-8.32L41.02-8.32L41.02-8.32Q42.66-10.07 45.35-10.07L45.35-10.07L45.35-10.07Q46.32-10.07 47.02-9.75L47.02-9.75L50.27-10.07L48.87-2.66L48.87-2.66Q48.81-2.43 48.81-2.01L48.81-2.01L48.81-2.01Q48.81-1.60 49.07-1.33L49.07-1.33L49.07-1.33Q49.32-1.06 49.70-1.03L49.70-1.03L49.70-1.03Q49.51-0.38 48.82 0L48.82 0L48.82 0Q48.13 0.38 47.35 0.38L47.35 0.38L47.35 0.38Q46.57 0.38 46.05 0.09L46.05 0.09L46.05 0.09Q45.52-0.21 45.37-0.70L45.37-0.70L45.37-0.70Q45.07-0.23 44.42 0.08L44.42 0.08L44.42 0.08Q43.78 0.38 42.91 0.38L42.91 0.38L42.91 0.38Q42.05 0.38 41.34 0.15L41.34 0.15L41.34 0.15Q40.64-0.08 40.19-0.57ZM44.20-8.28L44.20-8.28L44.20-8.28Q43.98-7.94 43.80-7.36L43.80-7.36L43.80-7.36Q43.61-6.78 43.29-5.23L43.29-5.23L43.29-5.23Q42.98-3.69 42.98-2.58L42.98-2.58L42.98-2.58Q42.98-1.48 43.15-1.16L43.15-1.16L43.15-1.16Q43.32-0.84 43.62-0.84L43.62-0.84L43.62-0.84Q44.23-0.84 44.68-1.42L44.68-1.42L44.68-1.42Q45.13-1.99 45.30-3.02L45.30-3.02L46.30-8.59L46.30-8.59Q45.90-8.93 45.44-8.93L45.44-8.93L45.44-8.93Q44.97-8.93 44.70-8.78L44.70-8.78L44.70-8.78Q44.42-8.63 44.20-8.28ZM58.20-9.37L58.20-9.37L58.20-9.37Q58.82-10.07 59.91-10.07L59.91-10.07L59.91-10.07Q60.57-10.07 61.09-9.71L61.09-9.71L61.09-9.71Q61.60-9.35 61.60-8.67L61.60-8.67L61.60-8.67Q61.60-8.00 61.39-7.28L61.39-7.28L61.39-7.28Q61.18-6.55 60.86-5.81L60.86-5.81L60.86-5.81Q60.21-4.37 59.32-3.17L59.32-3.17L59.32-3.17Q58.06-1.44 56.86-0.53L56.86-0.53L56.86-0.53Q55.65 0.38 54.34 0.38L54.34 0.38L54.34 0.38Q53.28 0.38 52.63 0.13L52.63 0.13L52.63 0.13Q52.52-3.86 52.37-5.28L52.37-5.28L52.37-5.28Q52.23-6.71 52.12-7.49L52.12-7.49L52.12-7.49Q51.93-9.01 51.36-9.37L51.36-9.37L51.36-9.37Q51.79-9.75 52.22-9.91L52.22-9.91L52.22-9.91Q52.65-10.07 53.53-10.07L53.53-10.07L53.53-10.07Q54.42-10.07 55.04-9.38L55.04-9.38L55.04-9.38Q55.67-8.68 55.79-7.46L55.79-7.46L55.79-7.46Q55.92-6.23 55.92-4.75L55.92-4.75L55.92-4.75Q55.92-3.27 55.80-1.48L55.80-1.48L55.80-1.48Q56.39-1.90 57.02-3.17L57.02-3.17L57.02-3.17Q57.87-4.94 58.18-7.07L58.18-7.07L58.18-7.07Q58.27-7.71 58.27-8.40L58.27-8.40L58.27-8.40Q58.27-9.08 58.20-9.37ZM62.94-0.57L62.94-0.57L62.94-0.57Q62.49-1.06 62.29-1.84L62.29-1.84L62.29-1.84Q62.09-2.62 62.09-3.90L62.09-3.90L62.09-3.90Q62.09-5.17 62.53-6.33L62.53-6.33L62.53-6.33Q62.97-7.49 63.76-8.32L63.76-8.32L63.76-8.32Q65.40-10.07 68.10-10.07L68.10-10.07L68.10-10.07Q69.06-10.07 69.77-9.75L69.77-9.75L73.02-10.07L71.61-2.66L71.61-2.66Q71.55-2.43 71.55-2.01L71.55-2.01L71.55-2.01Q71.55-1.60 71.81-1.33L71.81-1.33L71.81-1.33Q72.07-1.06 72.45-1.03L72.45-1.03L72.45-1.03Q72.26-0.38 71.56 0L71.56 0L71.56 0Q70.87 0.38 70.09 0.38L70.09 0.38L70.09 0.38Q69.31 0.38 68.79 0.09L68.79 0.09L68.79 0.09Q68.27-0.21 68.12-0.70L68.12-0.70L68.12-0.70Q67.81-0.23 67.17 0.08L67.17 0.08L67.17 0.08Q66.52 0.38 65.65 0.38L65.65 0.38L65.65 0.38Q64.79 0.38 64.09 0.15L64.09 0.15L64.09 0.15Q63.38-0.08 62.94-0.57ZM66.95-8.28L66.95-8.28L66.95-8.28Q66.73-7.94 66.54-7.36L66.54-7.36L66.54-7.36Q66.35-6.78 66.03-5.23L66.03-5.23L66.03-5.23Q65.72-3.69 65.72-2.58L65.72-2.58L65.72-2.58Q65.72-1.48 65.89-1.16L65.89-1.16L65.89-1.16Q66.06-0.84 66.37-0.84L66.37-0.84L66.37-0.84Q66.98-0.84 67.42-1.42L67.42-1.42L67.42-1.42Q67.87-1.99 68.04-3.02L68.04-3.02L69.05-8.59L69.05-8.59Q68.65-8.93 68.18-8.93L68.18-8.93L68.18-8.93Q67.72-8.93 67.44-8.78L67.44-8.78L67.44-8.78Q67.17-8.63 66.95-8.28Z" fill="url(#editing-gradient-gradient)"></path></g></g><style>text {
  font-size: 64px;
  font-family: Arial Black;
  dominant-baseline: central;
  text-anchor: middle;
}</style></svg>